<?xml version="1.0" encoding="utf-8"?>
<!-- Generator: Adobe Illustrator 26.0.1, SVG Export Plug-In . SVG Version: 6.00 Build 0)  -->
<svg version="1.1" id="圖層_1" xmlns="http://www.w3.org/2000/svg" xmlns:xlink="http://www.w3.org/1999/xlink" x="0px" y="0px"
	 viewBox="0 0 595.28 841.89" style="enable-background:new 0 0 595.28 841.89;" xml:space="preserve">
<style type="text/css">
	.st0{fill:#FFFFFF;}
</style>
<g>
	<g>
		<path class="st0" d="M152.51,140.8h21.36v6.91h-13.1v5.95H172v6.91h-11.23V172h-8.26V140.8z"/>
		<path class="st0" d="M185.92,162.11v-17.09h-7.2v-6.43h15.46v23.81c0,2.78,1.92,3.55,3.6,3.55c1.01,0,2.06-0.19,3.46-0.67
			l1.78,6.05c-2.59,0.77-4.32,1.25-7.44,1.25C189.19,172.58,185.92,168.35,185.92,162.11z"/>
		<path class="st0" d="M207.62,160c0-7.97,6.05-12.58,12.39-12.58s12.38,4.61,12.38,12.58s-6.05,12.58-12.38,12.58
			S207.62,167.97,207.62,160z M223.94,160c0-3.65-1.15-5.95-3.94-5.95s-3.94,2.3-3.94,5.95s1.15,5.95,3.94,5.95
			S223.94,163.65,223.94,160z"/>
		<path class="st0" d="M234.49,148h7.97l0.96,10.08c0.24,2.4,0.38,4.8,0.67,7.3h0.14c0.24-2.5,0.53-4.99,1.01-7.3l0.96-6.24h5.57
			l1.06,6.24c0.43,2.4,0.77,4.8,1.1,7.3h0.19c0.29-2.5,0.34-4.9,0.53-7.3l0.77-10.08h7.68l-3.17,24h-9.5l-0.77-6.43
			c-0.29-2.21-0.53-4.46-0.77-7.1h-0.19c-0.14,1.63-0.29,3.6-0.67,7.1l-0.77,6.43h-9.31L234.49,148z"/>
		<path class="st0" d="M265.6,160c0-7.87,6.14-12.58,12.58-12.58c7.58,0,11.42,5.18,11.42,11.62c0,1.44-0.24,2.88-0.34,3.46h-17.43
			v-5.38h11.71l-1.15,1.44c0-3.17-1.25-4.9-3.94-4.9c-3.17,0-4.9,2.02-4.9,6.34c0,4.51,2.21,6.34,6.62,6.34
			c1.92,0,3.65-0.48,5.76-1.44l2.69,4.9c-2.88,1.82-6.62,2.78-9.6,2.78C271.46,172.58,265.6,167.97,265.6,160z"/>
		<path class="st0" d="M296.99,148h6.77l0.62,5.09h0.19c2.3-3.94,5.76-5.66,9.36-5.66c2.21,0,3.22,0.38,4.56,0.96l-1.63,6.91
			c-1.44-0.43-2.45-0.67-4.18-0.67c-2.74,0-5.66,1.44-7.44,5.47V172h-8.26V148z"/>
		<path class="st0" d="M322.91,168.11l4.7-5.66c2.35,1.78,5.14,3.02,7.97,3.02c2.5,0,3.46-0.82,3.46-1.82
			c0-1.82-1.63-2.21-4.51-3.41l-3.89-1.63c-3.6-1.34-6.58-4.18-6.58-8.69c0-5.33,4.8-9.7,11.9-9.7c3.7,0,7.63,1.34,10.66,4.18
			l-4.13,5.18c-2.26-1.49-4.03-2.26-7.01-2.26c-1.82,0-3.07,0.67-3.07,2.11s1.78,1.97,4.9,3.12l3.6,1.49
			c4.18,1.54,6.58,4.22,6.58,8.54c0,5.28-4.42,9.98-12.48,9.98C330.93,172.58,326.41,171.14,322.91,168.11z"/>
		<path class="st0" d="M352.67,138.59h8.26v7.78l-0.48,4.22h0.19c1.54-1.54,4.03-3.17,7.58-3.17c5.28,0,7.58,3.84,7.58,9.79V172
			h-8.26v-13.73c0-2.69-0.67-3.84-2.78-3.84c-1.54,0-2.59,0.67-3.84,1.82V172h-8.26V138.59z"/>
		<path class="st0" d="M380.41,160c0-7.97,6.05-12.58,12.38-12.58s12.38,4.61,12.38,12.58s-6.05,12.58-12.38,12.58
			S380.41,167.97,380.41,160z M396.73,160c0-3.65-1.15-5.95-3.94-5.95s-3.94,2.3-3.94,5.95s1.15,5.95,3.94,5.95
			S396.73,163.65,396.73,160z"/>
		<path class="st0" d="M410.27,148h6.72l0.58,2.21h0.19c1.82-1.63,4.27-2.78,6.72-2.78c5.81,0,9.5,4.8,9.5,12.19
			c0,8.26-4.99,12.96-10.22,12.96c-2.06,0-3.89-0.86-5.42-2.4h-0.19l0.38,3.65v6.62h-8.26V148z M425.53,159.71
			c0-3.94-1.2-5.57-3.55-5.57c-1.3,0-2.3,0.48-3.46,1.73v8.83c1.01,0.86,2.16,1.15,3.26,1.15
			C423.81,165.86,425.53,164.32,425.53,159.71z"/>
	</g>
</g>
</svg>
