<svg id="圖層_1" data-name="圖層 1" xmlns="http://www.w3.org/2000/svg" viewBox="0 0 595.28 841.89"><defs><style>.cls-1{fill:#fff;}</style></defs><path class="cls-1" d="M152.51,140.8h21.36v6.91h-13.1v5.95H172v6.92H160.77V172h-8.26Z"/><path class="cls-1" d="M185.92,162.11V145h-7.2v-6.43h15.46V162.4a3.27,3.27,0,0,0,3.6,3.55,10.3,10.3,0,0,0,3.45-.67l1.78,6.05a22.52,22.52,0,0,1-7.44,1.25C189.19,172.58,185.92,168.35,185.92,162.11Z"/><path class="cls-1" d="M207.62,160A12.39,12.39,0,1,1,220,172.58,12.15,12.15,0,0,1,207.62,160Zm16.32,0c0-3.65-1.16-5.95-3.94-5.95s-3.94,2.3-3.94,5.95S217.22,166,220,166,223.94,163.65,223.94,160Z"/><path class="cls-1" d="M234.49,148h8l1,10.08c.24,2.4.39,4.8.68,7.3h.14a68.31,68.31,0,0,1,1-7.3l1-6.24h5.57l1.05,6.24c.43,2.4.77,4.8,1.11,7.3h.19c.29-2.5.33-4.9.53-7.3l.76-10.08h7.68l-3.16,24h-9.51l-.77-6.43c-.28-2.21-.52-4.47-.76-7.11h-.2c-.14,1.63-.28,3.6-.67,7.11l-.77,6.43H238Z"/><path class="cls-1" d="M265.6,160a12.31,12.31,0,0,1,12.58-12.58c7.58,0,11.42,5.19,11.42,11.62a21.25,21.25,0,0,1-.34,3.46H271.84v-5.38h11.71l-1.15,1.44c0-3.17-1.25-4.9-3.94-4.9-3.16,0-4.89,2-4.89,6.34,0,4.51,2.21,6.34,6.62,6.34A13.4,13.4,0,0,0,286,164.9l2.69,4.89a19,19,0,0,1-9.6,2.79C271.46,172.58,265.6,168,265.6,160Z"/><path class="cls-1" d="M297,148h6.77l.62,5.09h.2a10.6,10.6,0,0,1,9.36-5.67,9.89,9.89,0,0,1,4.56,1l-1.64,6.91a12.71,12.71,0,0,0-4.17-.67c-2.74,0-5.67,1.44-7.44,5.47V172H297Z"/><path class="cls-1" d="M322.91,168.11l4.7-5.66a13.63,13.63,0,0,0,8,3c2.5,0,3.46-.81,3.46-1.82,0-1.83-1.63-2.21-4.51-3.41l-3.89-1.63c-3.6-1.35-6.58-4.18-6.58-8.69,0-5.33,4.8-9.7,11.91-9.7a15.68,15.68,0,0,1,10.65,4.18l-4.12,5.18a11.35,11.35,0,0,0-7-2.25c-1.83,0-3.08.67-3.08,2.11s1.78,2,4.9,3.12l3.6,1.49c4.18,1.53,6.58,4.22,6.58,8.54,0,5.28-4.42,10-12.48,10A18.78,18.78,0,0,1,322.91,168.11Z"/><path class="cls-1" d="M352.67,138.59h8.26v7.78l-.48,4.22h.19a10.51,10.51,0,0,1,7.58-3.17c5.28,0,7.59,3.84,7.59,9.79V172h-8.26V158.27c0-2.69-.67-3.84-2.78-3.84a5.37,5.37,0,0,0-3.84,1.82V172h-8.26Z"/><path class="cls-1" d="M380.41,160a12.39,12.39,0,1,1,12.39,12.58A12.16,12.16,0,0,1,380.41,160Zm16.32,0c0-3.65-1.15-5.95-3.93-5.95s-3.94,2.3-3.94,5.95S390,166,392.8,166,396.73,163.65,396.73,160Z"/><path class="cls-1" d="M410.27,148H417l.58,2.21h.19a10.38,10.38,0,0,1,6.72-2.79c5.81,0,9.5,4.8,9.5,12.19,0,8.26-5,13-10.22,13a7.58,7.58,0,0,1-5.43-2.4h-.19l.39,3.64v6.63h-8.26Zm15.26,11.71c0-3.94-1.2-5.57-3.55-5.57a4.4,4.4,0,0,0-3.45,1.73v8.83a4.83,4.83,0,0,0,3.26,1.16C423.81,165.86,425.53,164.32,425.53,159.71Z"/></svg>